<svg width="16" height="16" viewBox="0 0 24 24" fill="none" xmlns="http://www.w3.org/2000/svg">
<path d="M23.2958 10.3224L13.4894 0.730605C13.2687 0.503478 13.0038 0.321844 12.7103 0.196403C12.4167 0.0709616 12.1005 0.00424972 11.7801 0.000196503C11.4598 -0.00385671 11.1419 0.0548308 10.8451 0.172802C10.5483 0.290773 10.2787 0.465643 10.0521 0.68711C9.82547 0.908578 9.64645 1.17216 9.52558 1.46234C9.40471 1.75252 9.34443 2.06343 9.34829 2.37675C9.35215 2.69006 9.42008 2.99945 9.54807 3.2867C9.67606 3.57394 9.86152 3.83323 10.0935 4.04929L15.8904 9.71057L2.40095 9.71057C1.76418 9.71057 1.15349 9.95799 0.703223 10.3984C0.252957 10.8388 0 11.4362 0 12.059C0 12.6818 0.252957 13.2792 0.703223 13.7196C1.15349 14.16 1.76418 14.4074 2.40095 14.4074L15.8368 14.4074L10.0935 20.0338C9.66203 20.4779 9.42504 21.0693 9.43314 21.6819C9.44124 22.2946 9.69379 22.8799 10.1369 23.3129C10.58 23.7459 11.1786 23.9924 11.8049 23.9998C12.4313 24.0072 13.0358 23.7749 13.4894 23.3524L23.2958 13.7606C23.5195 13.5431 23.6969 13.2842 23.8176 12.9991C23.9383 12.714 23.9999 12.4084 23.9988 12.0998C24.0004 12.0804 24.0004 12.0609 23.9988 12.0415C24.0002 12.0221 24.0002 12.0026 23.9988 11.9832C23.9986 11.3604 23.7458 10.7631 23.2958 10.3224Z" fill="#595959"/>
</svg>
