<svg width="24" height="25" viewBox="0 0 24 25" fill="none" xmlns="http://www.w3.org/2000/svg">
<path d="M19.4474 15.7681C19.3221 15.8999 19.2664 16.083 19.2985 16.2619L20.2198 21.8718C20.3687 22.7298 20.0109 23.5964 19.3007 24.0999C18.6312 24.5776 17.7464 24.628 17.0276 24.2295L12.2072 21.5847C12.0776 21.513 11.9212 21.513 11.7916 21.5847L6.97015 24.2338H6.97122C6.25137 24.6323 5.36762 24.5819 4.69812 24.1042C3.98793 23.6007 3.63015 22.7341 3.77902 21.8761L4.70026 16.2662C4.7324 16.0873 4.67669 15.9052 4.55136 15.7735L0.651032 11.7961C0.0490209 11.1823 -0.15558 10.2814 0.121856 9.46836C0.376802 8.67996 1.05379 8.1015 1.87219 7.97404L7.2635 7.15564H7.26243C7.42097 7.12672 7.55486 7.02174 7.61914 6.875L10.0283 1.77081C10.3786 0.997403 11.1498 0.500366 11.9993 0.500366C12.8488 0.500366 13.62 0.997403 13.9703 1.77081L16.3805 6.875C16.4459 7.02175 16.5797 7.12673 16.7372 7.15564L22.1274 7.97404C22.9469 8.10152 23.6239 8.67996 23.8788 9.46836C24.1552 10.2814 23.9506 11.1823 23.3486 11.7961L19.4474 15.7681Z" fill="#FFCC00"/>
</svg>
